<?xml version="1.0" encoding="utf-8"?>
<!-- Generator: Adobe Illustrator 27.3.1, SVG Export Plug-In . SVG Version: 6.00 Build 0)  -->
<svg version="1.1" xmlns="http://www.w3.org/2000/svg" xmlns:xlink="http://www.w3.org/1999/xlink" x="0px" y="0px"
	 viewBox="0 0 420 440" style="enable-background:new 0 0 420 440;" xml:space="preserve">
<style type="text/css">
	.st0{fill:#1C73E8;}
	.st1{fill:#77ABF1;}
	.st2{fill:#001011;}
	.st3{opacity:0.6;fill:#001011;}
	.st4{opacity:0.6;}
	.st5{fill:#FFFFFF;}
	.st6{opacity:0.6;fill:#FFFFFF;}
	.st7{fill:none;}
	.st8{opacity:0.2;}
	.st9{fill:none;stroke:#FFFFFF;stroke-width:5;stroke-miterlimit:10;}
	.st10{fill:none;stroke:#FFBF00;stroke-width:5;stroke-miterlimit:10;}
	.st11{fill:none;stroke:#77ABF1;stroke-width:5;stroke-miterlimit:10;}
	.st12{fill:none;stroke:#1C73E8;stroke-width:5;stroke-miterlimit:10;}
	.st13{opacity:0.2;fill:none;stroke:#77ABF1;stroke-width:5;stroke-miterlimit:10;}
</style>
<g id="Layer_1">
	<g class="st8">
		<g>
			<g>
				<path class="st10" d="M377,28.3l-53,53.2L251.9,9.4h117.3c6.6,0,9.4,4.9,10.2,6.8C380.3,18.2,381.7,23.6,377,28.3z"/>
			</g>
			<path class="st10" d="M405.3,227.5l-81.8,81.8L43,28.3c-4.7-4.7-3.1-10.1-2.3-12.1c0.7-1.9,3.5-6.8,10.1-6.8h147.5
				c1.6,0,3.1,0.3,4.5,1c1.4,0.7,2.4,1.4,3.3,2.3l199.2,199.2C409.6,216.2,409.6,223.1,405.3,227.5z"/>
			<g>
				<g>
					<path class="st10" d="M168.2,430.6H50.8c-6.6,0-9.4-4.9-10.2-6.9c-0.9-2.1-2.3-7.3,2.4-12l53-53.2L168.2,430.6z"/>
				</g>
			</g>
			<g>
				<path class="st10" d="M379.3,423.7c-0.9,2.1-3.5,6.9-10.2,6.9H221.7c-1.6,0-3.3-0.3-4.5-1c-1.4-0.5-2.3-1.2-3.3-2.3L14.8,228.1
					c-2.1-2.1-3.3-4.9-3.3-8c0-2.8,1.2-5.5,3.3-7.6l81.5-81.5l280.6,280.8C381.7,416.4,380.1,421.6,379.3,423.7z"/>
			</g>
		</g>
	</g>
</g>
<g id="Layer_2">
</g>
<g id="Layer_3">
</g>
<g id="Layer_4">
</g>
</svg>
