<?xml version="1.0" encoding="UTF-8"?><svg id="Layer_1" xmlns="http://www.w3.org/2000/svg" width="440" height="50" viewBox="0 0 440 50"><defs><style>.cls-1{fill:rgba(0,16,17,.8);}.cls-1,.cls-2{stroke-width:0px;}.cls-2{fill:#001011;}</style></defs><path class="cls-2" d="M149.8,45.8l-2.8-8.1h-16.6l-2.9,8.1h-6.8l14.2-39.7h7.5l14.2,39.7h-6.8ZM132.1,32.7h13.1l-6.5-18.6-6.6,18.6Z"/><path class="cls-2" d="M160.5,45.8V3.7h6.5v42.2h-6.5Z"/><path class="cls-2" d="M177.6,41.8c-2.8-3.1-4.3-7-4.3-11.7s1.4-8.6,4.2-11.6c2.8-3,6.4-4.5,10.6-4.5s4.6.6,6.5,1.7c1.9,1.1,3.3,2.6,4.4,4.4v-5.6h6.6v31.4h-6.6v-5.9c-1.1,1.9-2.5,3.5-4.4,4.6-1.9,1.2-4,1.7-6.5,1.7-4.2,0-7.7-1.5-10.5-4.6ZM196.3,37.8c1.9-1.9,2.8-4.5,2.8-7.7s-.9-5.8-2.8-7.7c-1.9-1.9-4.1-2.9-6.7-2.9s-4.8.9-6.7,2.8c-1.9,1.9-2.8,4.4-2.8,7.6s.9,5.8,2.8,7.8c1.9,2,4.1,2.9,6.7,2.9s4.8-1,6.7-2.9Z"/><path class="cls-2" d="M212.8,23.4c0-2.7,1.1-4.9,3.4-6.8,2.2-1.8,5.2-2.8,8.8-2.8s6.5.9,8.7,2.7c2.1,1.8,3.3,4.3,3.4,7.4h-6.7c-.1-1.6-.7-2.8-1.6-3.6s-2.3-1.3-4.1-1.3-3.1.4-4.1,1.2-1.5,1.8-1.5,3.1.6,2.3,1.9,3,2.8,1.3,4.6,1.6,3.6.8,5.4,1.3c1.8.5,3.3,1.4,4.6,2.7,1.3,1.3,1.9,3.1,1.9,5.3s-1.1,5-3.4,6.7c-2.3,1.7-5.3,2.6-8.9,2.6s-6.5-.9-8.8-2.6c-2.2-1.7-3.5-4.2-3.7-7.5h6.7c.1,1.6.7,2.8,1.7,3.6,1,.9,2.4,1.3,4.2,1.3s3.2-.4,4.2-1.2c1-.8,1.6-1.8,1.6-3.1s-.6-2.3-1.9-3c-1.3-.7-2.8-1.3-4.6-1.6s-3.6-.8-5.4-1.3-3.3-1.3-4.6-2.6c-1.3-1.3-1.9-2.9-1.9-5Z"/><path class="cls-2" d="M258.7,19.7h-7.6v17.4c0,1.2.3,2,.8,2.5.5.5,1.5.8,2.8.8h4v5.4h-5.1c-6,0-9.1-2.9-9.1-8.7v-17.4h-3.7v-5.3h3.7v-7.8h6.6v7.8h7.6v5.3Z"/><path class="cls-2" d="M266.8,41.8c-2.8-3.1-4.3-7-4.3-11.7s1.4-8.6,4.2-11.6c2.8-3,6.4-4.5,10.6-4.5s4.6.6,6.5,1.7c1.9,1.1,3.3,2.6,4.4,4.4v-5.6h6.6v31.4h-6.6v-5.9c-1.1,1.9-2.5,3.5-4.4,4.6-1.9,1.2-4,1.7-6.5,1.7-4.2,0-7.7-1.5-10.5-4.6ZM285.4,37.8c1.9-1.9,2.8-4.5,2.8-7.7s-.9-5.8-2.8-7.7c-1.9-1.9-4.1-2.9-6.7-2.9s-4.8.9-6.7,2.8c-1.9,1.9-2.8,4.4-2.8,7.6s.9,5.8,2.8,7.8c1.9,2,4.1,2.9,6.7,2.9s4.8-1,6.7-2.9Z"/><path class="cls-2" d="M332.5,5.8v7.8h-10.6v32.2h-9.7V13.6h-10.6v-7.8h31Z"/><path class="cls-2" d="M364.9,32.3h-22.1c.2,2,.8,3.5,1.9,4.5,1.1,1,2.5,1.6,4.1,1.6,2.4,0,4.1-1,5.1-3.1h10.4c-.5,2.1-1.5,4-2.9,5.6-1.4,1.7-3.1,3-5.2,3.9-2.1,1-4.4,1.4-7,1.4s-5.9-.7-8.3-2c-2.4-1.3-4.3-3.2-5.7-5.7-1.4-2.5-2.1-5.4-2.1-8.7s.7-6.2,2-8.7c1.3-2.5,3.2-4.4,5.7-5.7,2.4-1.3,5.2-2,8.4-2s5.8.6,8.2,1.9c2.4,1.3,4.3,3.1,5.6,5.5,1.3,2.4,2,5.2,2,8.4s0,1.9-.2,2.8ZM355.1,26.9c0-1.7-.6-3-1.7-4s-2.6-1.5-4.3-1.5-3,.5-4.1,1.4c-1.1,1-1.8,2.3-2.1,4h12.2Z"/><path class="cls-2" d="M370.3,21.3c1.3-2.5,3.2-4.4,5.6-5.7,2.4-1.3,5.2-2,8.3-2s7.3,1,10,3.1,4.4,5,5.3,8.8h-10.4c-.9-2.4-2.6-3.6-5.1-3.6s-3.2.7-4.3,2.1c-1.1,1.4-1.6,3.4-1.6,6s.5,4.6,1.6,6c1.1,1.4,2.5,2.1,4.3,2.1s4.2-1.2,5.1-3.6h10.4c-.8,3.7-2.6,6.7-5.3,8.8-2.7,2.1-6,3.2-10,3.2s-5.9-.7-8.3-2c-2.4-1.3-4.3-3.2-5.6-5.7-1.3-2.5-2-5.4-2-8.7s.7-6.2,2-8.7Z"/><path class="cls-2" d="M434.2,17.3c2.2,2.4,3.3,5.7,3.3,9.9v18.6h-9.7v-17.3c0-2.1-.6-3.8-1.7-5-1.1-1.2-2.6-1.8-4.4-1.8s-3.3.6-4.4,1.8c-1.1,1.2-1.7,2.8-1.7,5v17.3h-9.7V3.7h9.7v14.6c1-1.4,2.3-2.5,4-3.4s3.6-1.3,5.8-1.3c3.6,0,6.6,1.2,8.8,3.6Z"/><path class="cls-1" d="M2.5,12.9h21.7c13.8,0,20,9.8,20,24h-10.2c0-7.7-2.7-13.8-10.7-13.8H2.5v-10.2Z"/><rect class="cls-2" x="49.3" y="12.9" width="44" height="10.2"/></svg>