<?xml version="1.0" encoding="utf-8"?>
<!-- Generator: Adobe Illustrator 27.3.1, SVG Export Plug-In . SVG Version: 6.00 Build 0)  -->
<svg version="1.1" xmlns="http://www.w3.org/2000/svg" xmlns:xlink="http://www.w3.org/1999/xlink" x="0px" y="0px"
	 viewBox="0 0 420 110" style="enable-background:new 0 0 420 110;" xml:space="preserve">
<style type="text/css">
	.st0{fill:#1C73E8;}
	.st1{fill:#77ABF1;}
	.st2{fill:#001011;}
	.st3{opacity:0.6;fill:#001011;}
	.st4{opacity:0.6;}
	.st5{fill:#FFFFFF;}
	.st6{opacity:0.6;fill:#FFFFFF;}
	.st7{fill:none;}
	.st8{opacity:0.2;}
	.st9{fill:none;stroke:#FFFFFF;stroke-width:5;stroke-miterlimit:10;}
	.st10{fill:none;stroke:#FFBF00;stroke-width:5;stroke-miterlimit:10;}
	.st11{fill:none;stroke:#77ABF1;stroke-width:5;stroke-miterlimit:10;}
	.st12{fill:none;stroke:#1C73E8;stroke-width:5;stroke-miterlimit:10;}
	.st13{opacity:0.2;fill:none;stroke:#77ABF1;stroke-width:5;stroke-miterlimit:10;}
</style>
<g id="Layer_1">
	<g>
		<g>
			<g>
				<g>
					<g>
						<g>
							<g>
								<path class="st0" d="M182.6,57.3l25.5,45.2h-24.1l-16.6-31.2l-8,10.4v20.8h-21.3V26.8h21.3v31.9l23.9-31.9h23.3L182.6,57.3z
									"/>
								<path class="st0" d="M238.6,89.5c-7.4,0-13.5-4-15.4-12.7h45.8c0.3-1.7,0.5-5.1,0.5-7.2c0-20.8-12-33.2-31.7-33.2
									c-21.4,0-33.2,15.1-33.2,33.8c0,20.3,12,34,34.2,34c22.5,0,30.5-13.5,30.5-22.2h-16.9C250.9,86.7,245.3,89.5,238.6,89.5z
									 M237.8,50.8c7.2,0,12.8,4.8,14.3,13.8h-28.9C224.7,55.3,230.1,50.8,237.8,50.8z"/>
								<path class="st0" d="M276.6,17.4c0-6.4,5-11.7,11.3-11.7c6.2,0,11.3,5.3,11.3,11.7s-5.2,11.7-11.3,11.7
									C281.6,29.1,276.6,23.8,276.6,17.4z M278.2,37.7h19.5v65h-19.5V37.7z"/>
								<path class="st0" d="M343.7,36.4c-7.9,0-14.5,2.3-18.9,8.1v-6.8h-18.6v65.1h19.5V69.6c0-11.1,7.1-16.4,14.6-16.4
									c3.3,0,6.2,0.8,7.9,2V36.9C347,36.6,345.4,36.4,343.7,36.4z"/>
								<path class="st0" d="M383.9,36.3c18.4,0,33.4,15,33.4,34.2c0,19.4-15,33.8-33.4,33.8c-18.4,0-33.4-14.4-33.4-33.8
									C350.5,51.2,365.5,36.3,383.9,36.3z M383.9,87.5c9.2,0,16.5-7.4,16.5-17c0-9.6-7.3-17.6-16.5-17.6
									c-9.2,0-16.5,7.9-16.5,17.6C367.4,80.1,374.7,87.5,383.9,87.5z"/>
							</g>
						</g>
					</g>
					<g>
						<g>
							<path class="st0" d="M94.8,6.7L81.5,20.1L63.3,2h29.5c1.7,0,2.4,1.2,2.6,1.7C95.6,4.2,96,5.6,94.8,6.7z"/>
						</g>
						<path class="st1" d="M101.9,56.9L81.3,77.5L10.7,6.7c-1.2-1.2-0.8-2.5-0.6-3.1C10.3,3.2,11,2,12.7,2h37.1
							c0.4,0,0.8,0.1,1.1,0.3s0.6,0.3,0.8,0.6l50.1,50.1C103,54,103,55.8,101.9,56.9z"/>
						<g>
							<g>
								<path class="st1" d="M42.2,108H12.7c-1.7,0-2.4-1.2-2.6-1.7c-0.2-0.5-0.6-1.8,0.6-3l13.4-13.4L42.2,108z"/>
							</g>
						</g>
						<g>
							<path class="st0" d="M95.4,106.3c-0.2,0.5-0.9,1.7-2.6,1.7H55.7c-0.4,0-0.8-0.1-1.1-0.3c-0.3-0.1-0.6-0.3-0.8-0.6L3.6,57.1
								c-0.5-0.5-0.8-1.2-0.8-2c0-0.7,0.3-1.4,0.8-1.9l20.5-20.5l70.6,70.7C96,104.4,95.6,105.7,95.4,106.3z"/>
						</g>
					</g>
				</g>
			</g>
		</g>
	</g>
</g>
<g id="Layer_2">
</g>
<g id="Layer_3">
</g>
<g id="Layer_4">
</g>
</svg>
