<?xml version="1.0" encoding="utf-8"?>
<!-- Generator: Adobe Illustrator 27.3.1, SVG Export Plug-In . SVG Version: 6.00 Build 0)  -->
<svg version="1.1" xmlns="http://www.w3.org/2000/svg" xmlns:xlink="http://www.w3.org/1999/xlink" x="0px" y="0px"
	 viewBox="0 0 105 110" style="enable-background:new 0 0 105 110;" xml:space="preserve">
<style type="text/css">
	.st0{fill:#1C73E8;}
	.st1{fill:#77ABF1;}
	.st2{fill:#001011;}
	.st3{opacity:0.6;fill:#001011;}
	.st4{opacity:0.6;}
	.st5{fill:#FFFFFF;}
	.st6{opacity:0.6;fill:#FFFFFF;}
	.st7{fill:none;}
	.st8{opacity:0.2;}
	.st9{fill:none;stroke:#FFFFFF;stroke-width:5;stroke-miterlimit:10;}
	.st10{fill:none;stroke:#FFBF00;stroke-width:5;stroke-miterlimit:10;}
	.st11{fill:none;stroke:#77ABF1;stroke-width:5;stroke-miterlimit:10;}
	.st12{fill:none;stroke:#1C73E8;stroke-width:5;stroke-miterlimit:10;}
	.st13{opacity:0.2;fill:none;stroke:#77ABF1;stroke-width:5;stroke-miterlimit:10;}
</style>
<g id="Layer_1">
	<g>
		<g>
			<g>
				<path class="st0" d="M94.5,6.7L81.2,20.1L63,2h29.5c1.7,0,2.4,1.2,2.6,1.7C95.4,4.2,95.7,5.6,94.5,6.7z"/>
			</g>
			<path class="st1" d="M101.7,56.9L81.1,77.5L10.5,6.7C9.3,5.6,9.7,4.2,9.9,3.7C10.1,3.2,10.8,2,12.4,2h37.1c0.4,0,0.8,0.1,1.1,0.3
				s0.6,0.3,0.8,0.6l50.1,50.1C102.8,54,102.8,55.8,101.7,56.9z"/>
			<g>
				<g>
					<path class="st1" d="M42,108H12.4c-1.7,0-2.4-1.2-2.6-1.7c-0.2-0.5-0.6-1.8,0.6-3l13.4-13.4L42,108z"/>
				</g>
			</g>
			<g>
				<path class="st0" d="M95.1,106.3c-0.2,0.5-0.9,1.7-2.6,1.7H55.5c-0.4,0-0.8-0.1-1.1-0.3c-0.3-0.1-0.6-0.3-0.8-0.6L3.4,57.1
					c-0.5-0.5-0.8-1.2-0.8-2c0-0.7,0.3-1.4,0.8-1.9l20.5-20.5l70.6,70.7C95.7,104.4,95.3,105.7,95.1,106.3z"/>
			</g>
		</g>
	</g>
</g>
<g id="Layer_2">
</g>
<g id="Layer_3">
</g>
<g id="Layer_4">
</g>
</svg>
